<svg width="106" height="30" viewBox="0 0 106 30" fill="none" xmlns="http://www.w3.org/2000/svg">
<g clip-path="url(#clip0_119_13227)">
<path d="M29.7941 15.0141C29.4123 15.0972 29.0828 15.3102 28.9284 15.6776C28.8354 15.9006 28.7054 16.4765 28.3489 16.3276C28.1782 16.2572 28.181 16.0125 28.2008 15.86C28.2432 15.5467 28.3841 15.2606 28.4807 14.9627C28.58 14.6539 28.6657 14.3434 28.7271 14.0238C28.9329 12.9658 28.8761 11.7471 28.1277 10.9013C28.0013 10.7568 27.6826 10.4228 27.4723 10.4156C27.3423 10.412 27.4705 10.5654 27.5066 10.6169C27.5797 10.7225 27.6411 10.8372 27.6881 10.9572C28.2414 12.3691 26.8774 13.4443 25.981 14.2811C25.5513 14.6828 25.2082 15.1089 24.8995 15.6063C24.8688 15.6542 24.8011 15.8148 24.7136 15.7814C24.6097 15.7417 24.5989 15.5043 24.5664 15.4158C24.505 15.2461 24.4102 15.0611 24.2884 14.9284C24.0527 14.6702 23.7233 14.4959 23.3667 14.5194C23.3531 14.5203 23.3143 14.5266 23.2665 14.5375C23.1915 14.5537 22.9911 14.5799 23.0453 14.7009C23.0733 14.7632 23.1554 14.7577 23.2141 14.7749C23.967 15.006 23.9498 15.795 23.828 16.4287C23.6077 17.5824 22.9975 18.6729 23.4308 19.8591C23.9417 21.2574 25.5414 22.1304 26.993 21.8902C27.3893 21.8252 27.846 21.6971 28.2017 21.5057C28.58 21.3017 28.9943 21.0227 29.2895 20.7086C29.6696 20.305 29.9115 19.7878 29.9828 19.2398C30.0668 18.6061 29.8645 18.0085 29.6804 17.41C29.4583 16.6878 29.2028 15.5088 30.1254 15.1558C30.1706 15.1378 30.2608 15.1242 30.2924 15.0764C30.4098 14.9013 29.8465 15.0033 29.7941 15.0141Z" fill="#ED6C30"/>
<path d="M27.0489 19.9708C27.2402 20.1315 27.5084 20.0529 27.6889 19.9157C27.7855 19.8426 27.8685 19.7487 27.9227 19.6395C27.9453 19.5926 27.9715 19.533 27.9715 19.4797C27.9715 19.4084 27.929 19.338 27.9471 19.2649C28.0987 19.2351 28.2865 19.6711 28.3055 19.7722C28.4571 20.5693 27.7061 21.2265 26.9812 21.3538C25.758 21.5677 25.0547 20.4962 25.1955 19.5447C25.2831 18.9525 25.6803 18.5454 26.0847 18.1392C26.4197 17.8024 26.7302 17.5136 26.8385 17.0757C26.8575 16.9981 26.853 16.8789 26.8304 16.8022C26.8114 16.7363 26.7753 16.6758 26.7735 16.6045C26.7681 16.4547 26.9135 16.6505 26.9469 16.6885C27.3495 17.1425 27.4641 17.8133 27.3567 18.4C27.2872 18.7792 27.0164 19.05 26.9216 19.4129C26.8665 19.6196 26.8719 19.8209 27.0489 19.9708Z" fill="#FCC21B"/>
</g>
<path d="M5.02114 22.0867C4.5936 22.0867 4.28739 21.9942 4.10251 21.8093C3.91764 21.6129 3.8252 21.2489 3.8252 20.7174C3.8252 20.3592 3.85986 19.9028 3.92919 19.3481C4.01008 18.7819 4.13718 18.0078 4.3105 17.0256C4.61093 15.2114 4.84781 13.64 5.02114 12.3111C5.12513 11.4792 5.17713 10.7859 5.17713 10.2312C5.17713 9.71127 4.98647 9.45128 4.60516 9.45128C4.30473 9.45128 3.94075 9.60727 3.51321 9.91926C3.09723 10.2197 2.63503 10.705 2.12661 11.3752C1.96484 11.5947 1.78574 11.7045 1.5893 11.7045C1.42753 11.7045 1.2831 11.6294 1.15599 11.4792C1.04044 11.3174 0.982668 11.1383 0.982668 10.9419C0.982668 10.757 1.01733 10.5721 1.08666 10.3872C1.16755 10.1908 1.29465 9.97125 1.46798 9.7286C2.02262 8.95442 2.64081 8.35933 3.32255 7.94335C4.0043 7.51582 4.68604 7.30205 5.36779 7.30205C6.00331 7.30205 6.48862 7.50426 6.82372 7.90869C7.17037 8.31311 7.34369 8.90242 7.34369 9.6766C7.34369 9.98859 7.3148 10.3583 7.25703 10.7859C7.19925 11.2019 7.14725 11.5427 7.10104 11.8085C7.05482 12.0743 7.02015 12.2591 6.99704 12.3631C7.65567 10.4797 8.39519 9.16818 9.2156 8.42866C10.036 7.67759 10.9373 7.30205 11.9195 7.30205C12.6705 7.30205 13.2598 7.56782 13.6874 8.09935C14.1265 8.63088 14.346 9.38195 14.346 10.3526C14.346 10.7339 14.294 11.2076 14.19 11.7738C14.7678 10.1792 15.4437 9.0353 16.2179 8.342C16.9921 7.6487 17.8818 7.30205 18.8871 7.30205C19.696 7.30205 20.3142 7.56204 20.7417 8.08201C21.1808 8.60199 21.4003 9.32995 21.4003 10.2659C21.4003 10.7743 21.3252 11.3925 21.175 12.1205L20.1177 17.0776C20.0022 17.6553 19.9444 18.1522 19.9444 18.5682C19.9444 19.0535 20.0542 19.4175 20.2737 19.6601C20.5048 19.9028 20.8226 20.0241 21.227 20.0241C21.6083 20.0241 21.9781 19.897 22.3363 19.6428C22.706 19.3886 23.1394 18.9668 23.6362 18.3775C23.7749 18.2157 23.9309 18.1349 24.1042 18.1349C24.2544 18.1349 24.37 18.2042 24.4509 18.3428C24.5433 18.4815 24.5895 18.6722 24.5895 18.9148C24.5895 19.3655 24.4797 19.7237 24.2602 19.9894C23.6593 20.7174 23.0643 21.2489 22.475 21.584C21.8856 21.9191 21.2675 22.0867 20.6204 22.0867C19.6382 22.0867 18.8698 21.7978 18.3152 21.22C17.7605 20.6307 17.4832 19.845 17.4832 18.8628C17.4832 18.1811 17.6219 17.1931 17.8992 15.899L18.5925 12.7271C18.6156 12.6231 18.656 12.4382 18.7138 12.1725C18.7716 11.9067 18.8178 11.6583 18.8525 11.4272C18.8871 11.1845 18.9045 10.9477 18.9045 10.7166C18.9045 10.3121 18.8236 10.0117 18.6618 9.81526C18.5116 9.60727 18.292 9.50328 18.0032 9.50328C17.4601 9.50328 16.8881 9.85571 16.2873 10.5606C15.6979 11.2539 15.1318 12.4094 14.5887 14.0271C14.0571 15.6448 13.6238 17.7478 13.2887 20.3361C13.2078 21.0294 13.0634 21.4974 12.8554 21.74C12.659 21.9711 12.3354 22.0867 11.8848 22.0867C11.4919 22.0867 11.2031 21.9942 11.0182 21.8093C10.8449 21.6245 10.7582 21.2778 10.7582 20.7694C10.7582 20.2956 10.8217 19.6774 10.9488 18.9148C11.076 18.1406 11.2377 17.2336 11.4342 16.1936C11.9657 13.3973 12.2315 11.5947 12.2315 10.7859C12.2315 10.3468 12.1448 10.0233 11.9715 9.81526C11.8097 9.60727 11.5613 9.50328 11.2262 9.50328C10.66 9.50328 10.0764 9.82682 9.47559 10.4739C8.87473 11.1094 8.28542 12.2476 7.70767 13.8884C7.14148 15.5177 6.66772 17.7247 6.28641 20.5094C6.20552 21.0987 6.0842 21.5089 5.92243 21.74C5.77221 21.9711 5.47178 22.0867 5.02114 22.0867ZM32.0325 16.6789C32.1827 16.6789 32.2982 16.754 32.3791 16.9042C32.46 17.0545 32.5004 17.2451 32.5004 17.4762C32.5004 18.0309 32.3329 18.3602 31.9978 18.4642C31.3045 18.7068 30.5419 18.8455 29.7099 18.8802C29.4904 19.8508 29.0571 20.6307 28.41 21.22C27.7629 21.7978 27.0291 22.0867 26.2087 22.0867C25.5154 22.0867 24.9204 21.9191 24.4235 21.584C23.9382 21.2489 23.5684 20.8041 23.3142 20.2494C23.06 19.6948 22.9329 19.0939 22.9329 18.4468C22.9329 17.5687 23.1005 16.7887 23.4355 16.107C23.7706 15.4137 24.2328 14.8763 24.8221 14.495C25.4115 14.1022 26.0643 13.9057 26.7807 13.9057C27.6589 13.9057 28.3638 14.2119 28.8953 14.8244C29.4384 15.4252 29.7561 16.1705 29.8486 17.0602C30.3917 17.0256 31.0387 16.91 31.7898 16.7136C31.8822 16.6905 31.9631 16.6789 32.0325 16.6789ZM26.3474 20.2494C26.7172 20.2494 27.0349 20.0992 27.3007 19.7988C27.578 19.4983 27.7629 19.065 27.8553 18.4988C27.4971 18.2562 27.2198 17.9384 27.0234 17.5456C26.8385 17.1527 26.7461 16.7367 26.7461 16.2976C26.7461 16.1127 26.7634 15.9279 26.798 15.743H26.7114C26.2492 15.743 25.8621 15.9683 25.5501 16.4189C25.2497 16.858 25.0995 17.482 25.0995 18.2908C25.0995 18.9264 25.2208 19.4117 25.4634 19.7468C25.7177 20.0819 26.0123 20.2494 26.3474 20.2494ZM40.2337 16.6789C40.3839 16.6789 40.4995 16.754 40.5804 16.9042C40.6612 17.0545 40.7017 17.2451 40.7017 17.4762C40.7017 17.7651 40.6612 17.9904 40.5804 18.1522C40.4995 18.3024 40.3724 18.4064 40.199 18.4642C39.5057 18.7068 38.7431 18.8455 37.9112 18.8802C37.6801 19.8392 37.241 20.6134 36.5939 21.2027C35.9584 21.792 35.2535 22.0867 34.4793 22.0867C33.3123 22.0867 32.463 21.6418 31.9314 20.7521C31.3999 19.8623 31.1341 18.5739 31.1341 16.8869C31.1341 15.3963 31.319 13.7786 31.6888 12.0338C32.0585 10.2775 32.5959 8.78687 33.3007 7.56204C34.0171 6.32565 34.8664 5.70746 35.8486 5.70746C36.3801 5.70746 36.8076 5.93856 37.1312 6.40076C37.4547 6.85141 37.6165 7.44071 37.6165 8.16868C37.6165 9.11619 37.4374 10.0579 37.0792 10.9939C36.721 11.9298 36.1259 12.912 35.2939 13.9404C36.0681 13.9982 36.6979 14.3217 37.1832 14.911C37.6685 15.4888 37.9574 16.2052 38.0498 17.0602C38.5929 17.0256 39.24 16.91 39.991 16.7136C40.0604 16.6905 40.1413 16.6789 40.2337 16.6789ZM35.4499 7.42338C35.2188 7.42338 34.9646 7.77003 34.6873 8.46333C34.4215 9.14507 34.1731 10.0752 33.942 11.2539C33.7109 12.4325 33.5376 13.7208 33.422 15.119C34.1847 13.7208 34.7913 12.4902 35.2419 11.4272C35.7041 10.3526 35.9352 9.39928 35.9352 8.56732C35.9352 8.19756 35.889 7.91447 35.7966 7.71803C35.7157 7.5216 35.6002 7.42338 35.4499 7.42338ZM34.5486 20.2494C34.9069 20.2494 35.2246 20.0992 35.5019 19.7988C35.7793 19.4983 35.9641 19.065 36.0566 18.4988C35.6984 18.2562 35.4211 17.9384 35.2246 17.5456C35.0397 17.1527 34.9473 16.7367 34.9473 16.2976C34.9473 16.1358 34.9704 15.9163 35.0166 15.639H34.9646C34.4909 15.639 34.0922 15.8759 33.7687 16.3496C33.4567 16.8118 33.3007 17.4358 33.3007 18.2215C33.3007 18.8802 33.422 19.3828 33.6647 19.7294C33.9189 20.0761 34.2136 20.2494 34.5486 20.2494ZM41.4757 12.7791C40.9904 12.7791 40.6264 12.6693 40.3837 12.4498C40.1411 12.2187 40.0198 11.9009 40.0198 11.4965C40.0198 11.0921 40.1757 10.757 40.4877 10.4912C40.8113 10.2139 41.2099 10.0752 41.6837 10.0752C42.1112 10.0752 42.4579 10.1792 42.7236 10.3872C42.9894 10.5952 43.1223 10.8899 43.1223 11.2712C43.1223 11.7334 42.9721 12.1032 42.6716 12.3805C42.3712 12.6462 41.9725 12.7791 41.4757 12.7791ZM41.337 22.0867C40.5859 22.0867 40.0371 21.8209 39.6904 21.2894C39.3553 20.7578 39.1878 20.053 39.1878 19.1748C39.1878 18.6548 39.2513 17.9904 39.3785 17.1816C39.5171 16.3612 39.6904 15.5985 39.8984 14.8937C40.0024 14.5239 40.1411 14.2697 40.3144 14.1311C40.4877 13.9924 40.7651 13.9231 41.1464 13.9231C41.7357 13.9231 42.0303 14.1195 42.0303 14.5124C42.0303 14.8012 41.9206 15.4714 41.701 16.5229C41.4237 17.794 41.285 18.6548 41.285 19.1055C41.285 19.4521 41.3312 19.7179 41.4237 19.9028C41.5161 20.0876 41.6721 20.1801 41.8917 20.1801C42.0997 20.1801 42.3596 20.0357 42.6716 19.7468C42.9836 19.4579 43.3996 19.0015 43.9196 18.3775C44.0582 18.2157 44.2142 18.1349 44.3875 18.1349C44.5378 18.1349 44.6533 18.2042 44.7342 18.3428C44.8266 18.4815 44.8729 18.6722 44.8729 18.9148C44.8729 19.377 44.7631 19.7352 44.5435 19.9894C43.3996 21.3876 42.3308 22.0867 41.337 22.0867ZM50.0396 18.1349C50.1898 18.1349 50.3053 18.2042 50.3862 18.3428C50.4786 18.4815 50.5249 18.6722 50.5249 18.9148C50.5249 19.377 50.4151 19.7352 50.1956 19.9894C49.6987 20.6018 49.1556 21.1045 48.5663 21.4974C47.9885 21.8902 47.3299 22.0867 46.5904 22.0867C45.5736 22.0867 44.8167 21.6245 44.3198 20.7001C43.8345 19.7757 43.5919 18.5797 43.5919 17.1122C43.5919 15.7025 43.771 14.0964 44.1292 12.2938C44.4989 10.4912 45.0362 8.94286 45.7411 7.6487C46.4575 6.35454 47.3068 5.70746 48.289 5.70746C48.8436 5.70746 49.2769 5.96745 49.5889 6.48743C49.9125 6.99584 50.0742 7.72959 50.0742 8.68865C50.0742 10.0637 49.6929 11.6583 48.9303 13.4724C48.1677 15.2866 47.1335 17.0834 45.8278 18.8628C45.9087 19.3366 46.0415 19.6774 46.2264 19.8854C46.4113 20.0819 46.6539 20.1801 46.9544 20.1801C47.4281 20.1801 47.8441 20.0472 48.2023 19.7814C48.5605 19.5041 49.0169 19.0361 49.5716 18.3775C49.7102 18.2157 49.8662 18.1349 50.0396 18.1349ZM47.9077 7.42338C47.6419 7.42338 47.3415 7.90291 47.0064 8.86198C46.6713 9.82104 46.3766 11.0112 46.1224 12.4325C45.8682 13.8537 45.7295 15.2172 45.7064 16.5229C46.5268 15.171 47.1797 13.8191 47.665 12.4671C48.1503 11.1036 48.393 9.86148 48.393 8.74065C48.393 7.86247 48.2312 7.42338 47.9077 7.42338ZM55.3289 18.6548C55.4792 18.6548 55.5947 18.7242 55.6756 18.8628C55.768 19.0015 55.8143 19.1921 55.8143 19.4348C55.8143 19.8508 55.716 20.209 55.5196 20.5094C55.1961 21.0063 54.7685 21.3934 54.237 21.6707C53.717 21.948 53.0931 22.0867 52.3651 22.0867C51.2558 22.0867 50.395 21.7573 49.7826 21.0987C49.1701 20.4285 48.8639 19.5272 48.8639 18.3948C48.8639 17.5975 49.0315 16.858 49.3666 16.1763C49.7017 15.483 50.1639 14.9341 50.7532 14.5297C51.354 14.1253 52.03 13.9231 52.7811 13.9231C53.4513 13.9231 53.9886 14.1253 54.393 14.5297C54.7974 14.9226 54.9996 15.4599 54.9996 16.1416C54.9996 16.9389 54.7108 17.6264 54.133 18.2042C53.5668 18.7704 52.5962 19.221 51.2211 19.5561C51.4985 20.0876 51.9664 20.3534 52.6251 20.3534C53.0988 20.3534 53.4859 20.2436 53.7864 20.0241C54.0983 19.8046 54.4565 19.4348 54.861 18.9148C54.9996 18.7415 55.1556 18.6548 55.3289 18.6548ZM52.4864 15.6216C52.0589 15.6216 51.6949 15.8701 51.3945 16.3669C51.1056 16.8638 50.9612 17.4647 50.9612 18.1695V18.2042C51.6429 18.0424 52.1802 17.7998 52.5731 17.4762C52.966 17.1527 53.1624 16.7771 53.1624 16.3496C53.1624 16.1301 53.0988 15.9567 52.9717 15.8296C52.8562 15.691 52.6944 15.6216 52.4864 15.6216ZM64.0261 22.0867C63.5985 22.0867 63.2923 21.9942 63.1074 21.8093C62.9226 21.6129 62.8301 21.2489 62.8301 20.7174C62.8301 20.3592 62.8648 19.9028 62.9341 19.3481C63.015 18.7819 63.1421 18.0078 63.3154 17.0256C63.6159 15.2114 63.8527 13.64 64.0261 12.3111C64.1301 11.4792 64.1821 10.7859 64.1821 10.2312C64.1821 9.71127 63.9914 9.45128 63.6101 9.45128C63.3097 9.45128 62.9457 9.60727 62.5181 9.91926C62.1022 10.2197 61.64 10.705 61.1315 11.3752C60.9698 11.5947 60.7907 11.7045 60.5942 11.7045C60.4325 11.7045 60.288 11.6294 60.1609 11.4792C60.0454 11.3174 59.9876 11.1383 59.9876 10.9419C59.9876 10.757 60.0223 10.5721 60.0916 10.3872C60.1725 10.1908 60.2996 9.97125 60.4729 9.7286C61.0275 8.95442 61.6457 8.35933 62.3275 7.94335C63.0092 7.51582 63.691 7.30205 64.3727 7.30205C65.0082 7.30205 65.4935 7.50426 65.8286 7.90869C66.1753 8.31311 66.3486 8.90242 66.3486 9.6766C66.3486 9.98859 66.3197 10.3583 66.262 10.7859C66.2042 11.2019 66.1522 11.5427 66.106 11.8085C66.0597 12.0743 66.0251 12.2591 66.002 12.3631C66.6606 10.4797 67.4001 9.16818 68.2205 8.42866C69.0409 7.67759 69.9422 7.30205 70.9244 7.30205C71.6755 7.30205 72.2648 7.56782 72.6923 8.09935C73.1314 8.63088 73.3509 9.38195 73.3509 10.3526C73.3509 10.7339 73.2989 11.2076 73.1949 11.7738C73.7727 10.1792 74.4487 9.0353 75.2228 8.342C75.997 7.6487 76.8868 7.30205 77.8921 7.30205C78.7009 7.30205 79.3191 7.56204 79.7466 8.08201C80.1857 8.60199 80.4053 9.32995 80.4053 10.2659C80.4053 10.7743 80.3302 11.3925 80.1799 12.1205L79.1227 17.0776C79.0071 17.6553 78.9493 18.1522 78.9493 18.5682C78.9493 19.0535 79.0591 19.4175 79.2787 19.6601C79.5097 19.9028 79.8275 20.0241 80.2319 20.0241C80.6133 20.0241 80.983 19.897 81.3412 19.6428C81.711 19.3886 82.1443 18.9668 82.6412 18.3775C82.7798 18.2157 82.9358 18.1349 83.1091 18.1349C83.2593 18.1349 83.3749 18.2042 83.4558 18.3428C83.5482 18.4815 83.5944 18.6722 83.5944 18.9148C83.5944 19.3655 83.4847 19.7237 83.2651 19.9894C82.6643 20.7174 82.0692 21.2489 81.4799 21.584C80.8906 21.9191 80.2724 22.0867 79.6253 22.0867C78.6431 22.0867 77.8747 21.7978 77.3201 21.22C76.7654 20.6307 76.4881 19.845 76.4881 18.8628C76.4881 18.1811 76.6268 17.1931 76.9041 15.899L77.5974 12.7271C77.6205 12.6231 77.661 12.4382 77.7187 12.1725C77.7765 11.9067 77.8227 11.6583 77.8574 11.4272C77.892 11.1845 77.9094 10.9477 77.9094 10.7166C77.9094 10.3121 77.8285 10.0117 77.6667 9.81526C77.5165 9.60727 77.297 9.50328 77.0081 9.50328C76.465 9.50328 75.893 9.85571 75.2922 10.5606C74.7029 11.2539 74.1367 12.4094 73.5936 14.0271C73.0621 15.6448 72.6288 17.7478 72.2937 20.3361C72.2128 21.0294 72.0683 21.4974 71.8603 21.74C71.6639 21.9711 71.3404 22.0867 70.8897 22.0867C70.4969 22.0867 70.208 21.9942 70.0231 21.8093C69.8498 21.6245 69.7631 21.2778 69.7631 20.7694C69.7631 20.2956 69.8267 19.6774 69.9538 18.9148C70.0809 18.1406 70.2426 17.2336 70.4391 16.1936C70.9706 13.3973 71.2364 11.5947 71.2364 10.7859C71.2364 10.3468 71.1497 10.0233 70.9764 9.81526C70.8146 9.60727 70.5662 9.50328 70.2311 9.50328C69.6649 9.50328 69.0814 9.82682 68.4805 10.4739C67.8797 11.1094 67.2903 12.2476 66.7126 13.8884C66.1464 15.5177 65.6726 17.7247 65.2913 20.5094C65.2104 21.0987 65.0891 21.5089 64.9274 21.74C64.7771 21.9711 64.4767 22.0867 64.0261 22.0867ZM84.3297 22.0867C83.6133 22.0867 83.0413 21.8267 82.6138 21.3067C82.1863 20.7867 81.9725 20.105 81.9725 19.2615C81.9725 18.3371 82.1863 17.4647 82.6138 16.6443C83.0413 15.8123 83.6075 15.1479 84.3124 14.651C85.0288 14.1426 85.7856 13.8884 86.5829 13.8884C86.8371 13.8884 87.0047 13.9404 87.0856 14.0444C87.178 14.1368 87.2531 14.3102 87.3109 14.5644C87.5536 14.5181 87.8078 14.495 88.0735 14.495C88.6397 14.495 88.9228 14.6972 88.9228 15.1017C88.9228 15.3443 88.8362 15.9221 88.6628 16.8349C88.3971 18.1637 88.2642 19.0881 88.2642 19.6081C88.2642 19.7814 88.3046 19.9201 88.3855 20.0241C88.478 20.1281 88.5935 20.1801 88.7322 20.1801C88.9517 20.1801 89.2175 20.0414 89.5295 19.7641C89.8414 19.4752 90.2632 19.013 90.7947 18.3775C90.9334 18.2157 91.0894 18.1349 91.2627 18.1349C91.4129 18.1349 91.5285 18.2042 91.6094 18.3428C91.7018 18.4815 91.748 18.6722 91.748 18.9148C91.748 19.377 91.6382 19.7352 91.4187 19.9894C90.9449 20.5787 90.4423 21.0756 89.9108 21.48C89.3792 21.8845 88.865 22.0867 88.3682 22.0867C87.9869 22.0867 87.6344 21.9596 87.3109 21.7053C86.9989 21.4396 86.762 21.0814 86.6003 20.6307C85.9994 21.6014 85.2426 22.0867 84.3297 22.0867ZM84.9537 20.3361C85.2079 20.3361 85.4505 20.1859 85.6816 19.8854C85.9127 19.585 86.0803 19.1864 86.1843 18.6895L86.8256 15.5003C86.3403 15.5119 85.8896 15.6968 85.4737 16.055C85.0692 16.4016 84.7457 16.8638 84.503 17.4416C84.2604 18.0193 84.1391 18.6317 84.1391 19.2788C84.1391 19.637 84.2084 19.9028 84.347 20.0761C84.4973 20.2494 84.6995 20.3361 84.9537 20.3361ZM97.3417 16.2976C97.5959 16.2976 97.8096 16.3901 97.983 16.5749C98.1679 16.7483 98.2603 16.9678 98.2603 17.2336C98.2603 17.3838 98.2256 17.5456 98.1563 17.7189C97.9714 18.1464 97.7114 18.5046 97.3763 18.7935C97.0412 19.0824 96.6715 19.2268 96.2671 19.2268C95.9435 19.2268 95.6662 19.1113 95.4351 18.8802C95.2156 18.6491 95.1058 18.3371 95.1058 17.9442C95.1058 17.7247 95.1173 17.4878 95.1404 17.2336C95.1636 17.0487 95.1751 16.9216 95.1751 16.8523C95.1751 16.7598 95.152 16.6905 95.1058 16.6443C95.0711 16.598 95.0249 16.5749 94.9671 16.5749C94.8053 16.5749 94.5858 16.7714 94.3085 17.1642C94.0312 17.5456 93.7538 18.054 93.4765 18.6895C93.1992 19.325 92.9739 19.9952 92.8006 20.7001C92.6735 21.2547 92.529 21.6245 92.3672 21.8093C92.2055 21.9942 91.9397 22.0867 91.57 22.0867C91.1309 22.0867 90.8189 21.8556 90.634 21.3934C90.4607 20.9312 90.374 20.1916 90.374 19.1748C90.374 17.6727 90.5878 16.2456 91.0153 14.8937C91.1193 14.5586 91.2869 14.3159 91.518 14.1657C91.7606 14.0039 92.0957 13.9231 92.5232 13.9231C92.7543 13.9231 92.9161 13.9519 93.0085 14.0097C93.101 14.0675 93.1472 14.1773 93.1472 14.339C93.1472 14.5239 93.0605 14.9399 92.8872 15.587C92.7717 16.0492 92.6792 16.4536 92.6099 16.8003C92.5406 17.1469 92.4828 17.5744 92.4366 18.0829C92.8179 17.0891 93.2454 16.2803 93.7192 15.6563C94.1929 15.0323 94.6551 14.5875 95.1058 14.3217C95.5564 14.0559 95.9666 13.9231 96.3364 13.9231C96.6715 13.9231 96.9257 14.0213 97.099 14.2177C97.2839 14.4026 97.3763 14.6799 97.3763 15.0497C97.3763 15.2692 97.3128 15.6852 97.1857 16.2976H97.3417ZM101.781 15.5696C101.758 16.1474 101.746 16.598 101.746 16.9216C101.746 17.7535 101.787 18.4064 101.867 18.8802C101.96 19.3424 102.104 19.6774 102.301 19.8854C102.509 20.0819 102.792 20.1801 103.15 20.1801C103.335 20.1801 103.555 20.1223 103.809 20.0068C104.063 19.8912 104.294 19.741 104.502 19.5561C104.629 19.4406 104.756 19.3828 104.883 19.3828C105.022 19.3828 105.132 19.4637 105.213 19.6254C105.305 19.7757 105.351 19.9605 105.351 20.1801C105.351 20.3996 105.305 20.6134 105.213 20.8214C105.132 21.0294 105.005 21.2027 104.831 21.3414C104.23 21.8382 103.549 22.0867 102.786 22.0867C101.688 22.0867 100.885 21.6302 100.377 20.7174C99.8685 19.793 99.6143 18.5913 99.6143 17.1122C99.6143 16.6038 99.6316 16.0896 99.6663 15.5696H98.9903C98.6436 15.5696 98.4068 15.5061 98.2797 15.379C98.1641 15.2519 98.1063 15.0497 98.1063 14.7724C98.1063 14.1253 98.3663 13.8017 98.8863 13.8017H99.8742C100.071 12.5307 100.371 11.3694 100.776 10.3179C101.18 9.2664 101.665 8.42866 102.231 7.80469C102.809 7.18072 103.427 6.86874 104.086 6.86874C104.571 6.86874 104.953 7.08251 105.23 7.51004C105.507 7.93758 105.646 8.47488 105.646 9.12196C105.646 10.913 104.895 12.4729 103.393 13.8017H105.334C105.519 13.8017 105.652 13.8422 105.733 13.9231C105.814 14.0039 105.854 14.1542 105.854 14.3737C105.854 15.171 105.201 15.5696 103.895 15.5696H101.781ZM103.618 8.53266C103.445 8.53266 103.248 8.7522 103.029 9.19129C102.821 9.61883 102.619 10.2197 102.422 10.9939C102.237 11.7565 102.081 12.6058 101.954 13.5417C102.636 12.9524 103.144 12.2938 103.479 11.5658C103.826 10.8263 103.999 10.1561 103.999 9.55527C103.999 8.87353 103.872 8.53266 103.618 8.53266Z" fill="black"/>
<defs>
<clipPath id="clip0_119_13227">
<rect width="11.555" height="11.555" fill="white" transform="translate(20.8955 10.3955)"/>
</clipPath>
</defs>
</svg>
